<svg width="41" height="33" viewBox="0 0 41 33" fill="none" xmlns="http://www.w3.org/2000/svg">
<path d="M16.2072 0.00131094C16.0636 -0.0067926 15.9204 0.0227782 15.7918 0.0870908C15.6631 0.151403 15.5536 0.248223 15.4739 0.367949L0.350108 15.6751C0.124646 15.9271 0 16.2535 0 16.5917C0 16.9299 0.124646 17.2562 0.350108 17.5083L15.4739 32.6321C15.5536 32.7518 15.6631 32.8486 15.7918 32.9129C15.9204 32.9772 16.0636 33.0068 16.2072 32.9987C16.3518 32.9871 16.4927 32.9471 16.6218 32.8809C16.7509 32.8146 16.8656 32.7235 16.9593 32.6127C17.053 32.502 17.1239 32.3738 17.1679 32.2355C17.2118 32.0973 17.228 31.9517 17.2154 31.8071V22.9162C31.606 23.5578 36.5556 26.3992 38.7554 31.3488C39.122 32.0821 39.4887 32.3571 39.7636 32.3571C40.0386 32.3571 40.3136 31.9904 40.3136 31.4405C40.1303 21.8162 31.1477 12.2837 17.2154 10.9088V1.19288C17.228 1.04834 17.2118 0.902745 17.1679 0.764479C17.1239 0.626214 17.053 0.498011 16.9593 0.387255C16.8656 0.276499 16.7509 0.185378 16.6218 0.11914C16.4927 0.052903 16.3518 0.0128575 16.2072 0.00131094Z" fill="white"/>
</svg>
