<svg width="244" height="242" viewBox="0 0 244 242" fill="none" xmlns="http://www.w3.org/2000/svg">
<path d="M151.827 20.0419C152.699 20.8544 153.715 21.8409 154.108 22.2342C154.5 22.6275 156.13 24.5102 157.74 26.4089C160.11 29.1812 160.932 30.3287 161.972 32.211C162.691 33.51 163.73 35.7854 164.343 37.2711C164.936 38.773 165.848 41.4479 166.376 43.2654C166.904 45.083 167.699 48.4442 168.18 50.7579C168.626 53.0685 169.164 56.3167 169.35 57.9601C169.556 59.5874 169.788 62.2716 169.868 63.9053C169.949 65.5389 169.848 68.7288 169.656 70.981C169.389 73.6553 168.961 76.1361 168.363 78.1367C167.866 79.8249 166.92 82.3119 166.256 83.6809C165.592 85.05 164.395 87.1566 163.586 88.3516C162.778 89.5466 161.371 91.4018 160.45 92.4614C159.545 93.5404 157.342 95.698 152.423 100.145L153.352 101.499C153.853 102.26 154.518 103.375 154.851 104.013C155.15 104.648 155.82 106.085 156.304 107.22C156.769 108.37 157.621 110.736 158.207 112.505C158.793 114.275 159.627 117.407 160.1 119.434C160.553 121.477 161.107 124.548 161.322 126.266C161.556 127.967 161.758 130.219 161.804 131.26C161.85 132.301 161.783 134.547 161.644 136.232C161.521 137.936 161.154 140.53 160.854 142.022C160.538 143.494 159.869 145.881 159.376 147.337C158.883 148.794 157.972 151.087 157.382 152.427C156.792 153.768 155.523 156.261 154.598 157.945C153.672 159.63 152.009 162.516 150.893 164.327C149.793 166.156 147.956 168.991 146.817 170.656C145.679 172.321 143.91 174.805 142.905 176.196C141.899 177.587 139.898 180.067 138.493 181.726C136.104 184.528 135.439 185.146 128.932 190.717C123.109 195.654 121.488 196.935 119.439 198.213C118.073 199.053 116.415 199.974 115.744 200.27C115.092 200.55 114.079 200.869 113.502 200.923C112.906 200.994 112.274 200.864 112.026 200.645C111.766 200.371 111.712 199.991 111.884 199.488C112.127 198.796 113.103 197.92 122.309 190.237C131.903 182.232 132.604 181.617 134.824 179.085C136.107 177.594 138.502 174.524 140.142 172.28C141.765 170.015 143.74 167.229 144.491 166.082C145.257 164.955 146.92 162.265 148.211 160.114C149.502 157.962 151.152 155.021 151.932 153.555C152.696 152.07 153.888 149.445 154.573 147.667C155.273 145.908 156.149 143.218 156.504 141.713C156.842 140.189 157.261 137.618 157.393 136.004C157.542 134.409 157.608 132.163 157.553 131.032C157.497 129.901 157.305 127.936 157.141 126.634C156.956 125.348 156.6 123.225 156.329 121.913C156.078 120.585 155.519 118.336 155.119 116.87C154.7 115.419 153.97 113.083 153.493 111.681C152.997 110.295 152.125 108.142 151.541 106.927C150.957 105.712 150.094 104.239 148.792 102.673L148.172 103.188C147.823 103.478 146.651 104.157 145.564 104.701C144.477 105.245 142.689 106.011 141.579 106.41C140.47 106.809 138.722 107.346 137.645 107.587C136.584 107.847 134.681 108.12 133.421 108.219C132.16 108.319 129.981 108.298 128.618 108.156C127.252 108.048 125.074 107.635 123.786 107.267C122.516 106.883 120.616 106.173 119.589 105.686C118.582 105.182 116.901 104.225 115.855 103.557C114.188 102.457 113.715 101.967 111.414 99.237C108.951 96.3131 108.794 96.0843 108.504 94.7888C108.341 94.0412 108.251 92.5138 108.318 91.4119C108.395 90.0071 108.685 88.8182 109.29 87.4975C110.107 85.642 110.226 85.5099 114.916 81.4171L116.512 81.1698C117.382 81.035 118.804 80.9326 119.681 80.9234C120.538 80.9303 122.165 81.1149 123.306 81.3443C124.446 81.5737 126.331 82.0677 127.493 82.4421C128.637 82.8326 131.013 83.8005 132.762 84.6038C134.51 85.407 137.098 86.7875 138.537 87.6518C139.976 88.5161 142.209 90.0607 143.513 91.0378C144.796 92.0309 146.759 93.8009 149.852 97.0505L152.613 94.6579C154.147 93.3506 156.15 91.4248 157.071 90.3652C158.008 89.3249 159.408 87.5406 160.19 86.4326C160.973 85.3246 162.141 83.3404 162.778 82.0583C163.416 80.7762 164.327 78.4826 164.772 76.9684C165.269 75.2802 165.742 72.6963 165.948 70.3024C166.149 68.1404 166.198 64.9279 166.08 63.1299C165.961 61.3319 165.674 58.464 165.427 56.7078C165.176 54.987 164.597 51.8064 164.122 49.6183C163.662 47.4496 162.892 44.3945 162.377 42.8283C161.881 41.2459 161.103 39.048 160.619 37.9135C160.134 36.7791 159.342 35.116 158.873 34.1974C158.251 33.0146 157.043 31.4028 154.551 28.4049C152.366 25.7744 150.288 23.5114 148.925 22.225C147.706 21.1127 145.669 19.3716 144.385 18.3785C143.082 17.4015 141.123 15.9891 140.006 15.3151C138.908 14.6249 136.371 13.267 134.385 12.3348C131.03 10.7412 130.717 10.6412 130.007 10.9694C129.594 11.1819 128.872 11.2588 128.418 11.1458C127.928 11.0295 127.32 10.6522 127.066 10.3073C126.761 9.93981 126.562 9.38549 126.602 8.96018C126.638 8.57032 126.9 8.05814 127.21 7.80053C127.501 7.55903 128.42 7.28564 129.217 7.17974C130.032 7.05774 130.912 7.0131 131.193 7.07447C131.473 7.13585 133.003 7.79399 134.616 8.5134C136.21 9.24892 138.499 10.3876 139.674 11.0133C140.849 11.639 142.59 12.7097 143.549 13.3515C144.508 13.9932 146.394 15.4345 147.774 16.5437C149.154 17.6529 150.975 19.2134 151.827 20.0419Z" fill="black"/>
<path d="M142.867 205.753C145.589 204.929 147.066 204.618 147.682 204.728C148.191 204.828 148.738 205.092 148.931 205.324C149.124 205.556 149.271 206.088 149.267 206.517C149.246 207.122 149.02 207.441 148.167 208.15C147.373 208.81 146.382 209.273 144.224 209.987C142.637 210.521 140.502 211.184 139.457 211.464C138.428 211.763 133.949 212.837 129.492 213.859C125.051 214.901 119.688 216.251 117.592 216.881C115.479 217.492 112.586 218.425 111.124 218.953C109.679 219.5 107.024 220.562 105.237 221.328C103.449 222.094 100.691 223.307 99.1389 224.041C97.5708 224.755 95.99 225.415 95.6062 225.505C95.2225 225.595 94.6038 225.521 94.211 225.324C93.6443 225.075 93.4032 224.785 93.1242 224.134C92.8614 223.503 92.9197 221.917 93.3729 218.206C93.7047 215.412 94.2319 210.331 94.549 206.929C94.8467 203.542 95.1645 198.406 95.2515 195.555C95.3385 192.703 95.4681 186.71 95.5265 182.247C95.6042 177.769 95.8983 171.737 96.153 168.811C96.4433 165.889 96.7463 163.021 96.8539 162.441C96.9555 161.736 97.2144 161.259 97.6147 160.992C98.1118 160.644 98.2503 160.693 98.8388 161.283C99.408 161.889 99.4652 162.233 99.4277 164.553C99.3859 165.961 99.3286 168.494 99.2442 170.166C99.1954 171.842 99.1667 175.985 99.1525 179.398C99.1738 182.813 99.2002 188.284 99.212 191.61C99.2432 194.919 99.1287 199.984 98.9835 202.884C98.8384 205.784 98.4147 210.714 98.0659 213.881C97.7011 217.029 97.4793 219.6 97.5857 219.609C97.6759 219.6 99.8537 218.673 102.425 217.55C104.996 216.427 108.726 214.963 110.684 214.284C112.642 213.605 115.203 212.785 116.361 212.444C117.519 212.103 123.082 210.717 128.712 209.373C134.343 208.03 140.716 206.396 142.867 205.753Z" fill="black"/>
<path d="M140.778 94.2905C141.846 95.1031 142.976 96.0284 143.272 96.3057C143.568 96.583 144.381 97.4437 146.22 99.5778L145.639 100.061C145.329 100.318 144.235 100.933 143.225 101.413C142.234 101.876 140.802 102.478 140.063 102.732C139.344 102.97 137.837 103.404 136.741 103.662C135.664 103.903 133.923 104.172 132.914 104.259C131.889 104.326 130.071 104.267 128.85 104.137C127.664 104.011 125.821 103.646 124.777 103.336C123.734 103.026 122.162 102.436 121.273 101.997C120.385 101.558 118.763 100.552 117.675 99.7557C116.285 98.7529 115.249 97.7825 114.237 96.5639C113.16 95.268 112.726 94.5493 112.515 93.7436C112.375 93.141 112.329 92.1002 112.424 91.4655C112.522 90.7953 112.798 89.7483 113.067 89.1652C113.343 88.5113 114.038 87.574 114.726 86.9042C115.669 85.9896 116.16 85.7127 117.169 85.4297C117.869 85.2078 119.307 85.1248 120.357 85.1672C121.424 85.229 123.476 85.649 124.923 86.0493C126.369 86.4497 128.923 87.4338 130.584 88.2112C132.265 88.9726 134.802 90.3305 136.24 91.1948C137.679 92.0591 139.729 93.4618 140.778 94.2905Z" fill="#F7F7F7"/>
</svg>
