<svg width="286" height="76" viewBox="0 0 286 76" fill="none" xmlns="http://www.w3.org/2000/svg">
<path d="M189.852 3.37956C216.832 2.29237 244.643 1.10635 251.471 0.612169C258.299 0.216827 265.793 -0.0796798 268.125 0.0191558C271.789 0.117991 272.288 0.612169 272.788 4.07141C273.121 6.2458 272.122 9.70504 270.623 11.6818C269.291 13.7573 267.459 15.4375 266.46 15.4375C265.46 15.4375 264.794 16.2282 264.794 17.1177C264.794 18.1061 265.627 19.2921 266.626 19.8851C267.625 20.4781 267.958 22.6525 267.459 24.8269C267.126 27.0013 266.293 29.9663 265.793 31.4489C264.794 34.2163 264.794 34.2163 285.611 34.7104L285.944 38.6639C286.278 41.2336 285.112 44.0998 282.447 47.0649C280.282 49.5358 275.952 54.6752 272.788 58.431C269.624 62.1867 265.793 65.646 264.295 66.1401C262.796 66.5355 248.474 67.3262 232.819 67.8203C216.998 68.4134 192.017 69.5005 177.362 70.2912C162.707 71.0819 144.388 72.1691 136.561 72.6633C128.733 73.2563 115.244 74.1458 106.584 74.8377C97.9239 75.5295 89.4305 75.7272 87.9317 75.3318C86.0998 74.9365 84.7675 73.5528 84.1013 68.3145L59.9534 68.1168C41.9674 68.018 35.4724 67.6227 34.4732 66.6343C33.8071 65.9425 33.6405 63.7681 34.3067 61.8902C34.9728 59.3205 34.6398 58.2333 32.6413 57.7391C30.8094 57.1461 29.9767 55.5647 29.9767 52.5008C29.9767 49.6346 29.3106 48.0532 27.9783 47.9544C26.8125 47.9544 21.6498 47.9544 16.6537 48.0532C11.6576 48.1521 5.8288 47.7567 3.83036 47.1637C0.832686 46.373 0 45.187 0 42.3208C0 39.9487 1.66537 37.0825 4.99612 34.0186C7.66071 31.35 10.8249 29.0768 11.6576 28.7803C12.6568 28.4838 13.323 26.3094 13.323 23.8385C13.323 21.3676 14.4887 17.9084 15.821 16.2282C17.1533 14.4491 19.9845 11.9783 21.9829 10.7922C25.4802 8.81552 27.9783 8.61785 51.6266 8.02484C65.7822 7.72833 91.5955 7.03648 109.082 6.44347C126.568 5.85045 162.873 4.56559 189.852 3.37956Z" fill="var(--dash-fill-color)"/>
</svg>