<svg width="2201" height="2692" viewBox="0 0 2201 2692" fill="none" xmlns="http://www.w3.org/2000/svg">
<g clip-path="url(#clip0_164_74)">
<path fill-rule="evenodd" clip-rule="evenodd" d="M950.147 246.237L574.029 109.341C532.505 94.228 486.561 115.604 471.444 157.138L327.317 553.121C294.395 526.665 287.173 515.729 259.867 505.791C193.947 481.755 119.681 501.716 78.0521 558.161C11.8149 648.046 50.8136 766.409 144.918 804.406C230.081 838.766 326.545 789.298 357.928 703.073L532.986 222.104C540.538 201.356 563.517 190.65 584.279 198.206L885.173 307.723C905.935 315.279 916.656 338.252 909.104 359L778.659 717.396C745.736 690.94 738.514 680.004 711.208 670.065C645.288 646.03 571.022 665.991 529.393 722.436C463.156 812.321 502.155 930.684 596.259 968.681C681.423 1003.04 777.886 953.573 809.27 867.348L998.009 348.792C1013.13 307.258 991.708 261.364 950.147 246.237Z" fill="white"/>
</g>
<g clip-path="url(#clip1_164_74)">
<path fill-rule="evenodd" clip-rule="evenodd" d="M1835.85 1873.13L1566.29 2028.75C1536.54 2045.93 1526.3 2083.99 1543.49 2113.75L1707.33 2397.54C1675.12 2403.93 1664.99 2402.76 1645.42 2414.06C1598.16 2441.31 1572.93 2495.53 1585.74 2548.54C1606.18 2632.93 1696.18 2668.86 1765.85 2631.8C1828.89 2598.24 1847.64 2516.05 1811.96 2454.26L1612.95 2109.56C1604.37 2094.69 1609.48 2075.65 1624.35 2067.06L1840 1942.56C1854.87 1933.97 1873.92 1939.07 1882.5 1953.94L2030.79 2210.79C1998.58 2217.18 1988.45 2216.01 1968.88 2227.31C1921.62 2254.56 1896.39 2308.78 1909.2 2361.79C1929.64 2446.18 2019.64 2482.11 2089.31 2445.05C2152.35 2411.49 2171.1 2329.3 2135.42 2267.51L1920.86 1895.88C1903.67 1866.11 1865.63 1855.93 1835.85 1873.13Z" fill="white"/>
</g>
<mask id="mask0_164_74" style="mask-type:alpha" maskUnits="userSpaceOnUse" x="1029" y="887" width="320" height="800">
<mask id="mask1_164_74" style="mask-type:alpha" maskUnits="userSpaceOnUse" x="1029" y="887" width="800" height="800">
<g clip-path="url(#clip2_164_74)">
<path fill-rule="evenodd" clip-rule="evenodd" d="M1748.95 887H1348.69C1304.5 887 1268.64 922.801 1268.64 967V1388.4C1228.66 1374.8 1218.13 1366.99 1189.07 1366.99C1118.91 1366.95 1055.95 1411.11 1036.13 1478.39C1004.63 1585.51 1081.76 1683.39 1183.19 1686.91C1274.97 1690.07 1348.69 1610.59 1348.69 1518.84V1007C1348.69 984.92 1366.62 967 1388.72 967H1708.92C1731.02 967 1748.95 984.92 1748.95 1007V1388.4C1708.96 1374.8 1698.44 1366.99 1669.38 1366.99C1599.21 1366.95 1536.25 1411.11 1516.44 1478.39C1484.94 1585.51 1562.07 1683.39 1663.49 1686.91C1755.27 1690.07 1829 1610.59 1829 1518.84V967C1829 922.801 1793.18 887 1748.95 887Z" fill="black"/>
</g>
</mask>
<g mask="url(#mask1_164_74)">
<rect x="920" y="851" width="429" height="871" fill="#D9D9D9"/>
</g>
</mask>
<g mask="url(#mask0_164_74)">
<path d="M1350 926.5C1350 948.868 1331.87 967 1309.5 967C1287.13 967 1269 948.868 1269 926.5C1269 904.132 1287.13 886 1309.5 886C1331.87 886 1350 904.132 1350 926.5Z" fill="white"/>
<path d="M999 1000H1350V1720H999V1000Z" fill="white"/>
<path d="M1269 931H1349V1009H1269V931Z" fill="white"/>
</g>
<defs>
<clipPath id="clip0_164_74">
<rect width="800" height="800" fill="white" transform="translate(273.616) rotate(20)"/>
</clipPath>
<clipPath id="clip1_164_74">
<rect width="622.101" height="622.101" fill="white" transform="translate(1351 2153.05) rotate(-30)"/>
</clipPath>
<clipPath id="clip2_164_74">
<rect width="800" height="800" fill="white" transform="translate(1029 887)"/>
</clipPath>
</defs>
</svg>
